<svg width="115" height="114" viewBox="0 0 115 114" fill="none" xmlns="http://www.w3.org/2000/svg">
<path d="M30.6391 0.508475C26.7416 1.93091 21.8769 4.26371 19.6863 5.74305C15.6181 8.50258 10.3551 13.851 7.65249 18.0329C4.72226 22.5847 2.21877 28.815 1.30841 33.7367C0.483394 38.3738 0.198906 49.0421 0.79633 52.5413L0.967023 53.4517L1.82049 52.1715C3.21448 50.0947 5.12055 48.1317 7.99387 45.8274C9.47321 44.661 11.5784 42.8403 12.6879 41.7877C13.7974 40.7351 15.3052 39.3695 16.0449 38.7721C16.7845 38.1462 20.682 34.3056 24.6933 30.1806C28.733 26.0839 32.0615 22.6701 32.1184 22.6132C32.4029 22.3287 33.6547 14.8467 33.9107 11.8311C34.0814 9.89657 34.3374 7.25084 34.4797 5.91374C34.9064 2.24385 34.8495 1.19125 34.1952 0.536924C33.484 -0.174296 32.4883 -0.174296 30.6391 0.508475Z" fill="url(#paint0_linear_313_57)"/>
<path d="M76.1574 2.69783C67.765 3.94958 59.9701 7.33499 53.7113 12.4273C51.2932 14.4187 44.0957 21.1042 35.1627 29.6957C23.072 41.3028 20.597 43.4934 15.7038 46.7934C10.2132 50.5487 8.44933 51.6582 5.54755 53.1944C4.32425 53.8487 2.95871 54.6453 2.47508 54.9582C2.0199 55.2712 1.59317 55.5557 1.56472 55.5557C1.33713 55.6695 2.50353 60.7334 3.04406 61.8998C5.20617 66.6507 9.61573 70.8611 13.9399 72.2836C18.6624 73.8482 27.1402 72.9379 32.2894 70.349C35.2481 68.8413 40.0844 65.0007 46.144 59.3963C48.5906 57.1204 48.05 57.604 54.9346 51.459C72.0608 36.0967 75.304 33.5648 80.3679 31.5734C86.0576 29.3828 92.4017 28.9561 97.3518 30.4923C103.44 32.3984 109.699 37.7467 112.999 43.8348C113.653 45.0581 114.25 46.0538 114.336 46.0538C114.649 46.0538 114.165 36.495 113.738 34.0768C112.885 29.3543 110.353 23.1241 107.508 18.7998C105.317 15.4429 103.155 13.0816 99.6846 10.2083C95.2181 6.50997 91.4913 4.7177 85.4602 3.3806C82.8714 2.81163 77.8644 2.44179 76.1574 2.69783Z" fill="url(#paint1_linear_313_57)"/>
<path d="M91.9465 43.6365C90.9223 43.8357 88.9594 44.4331 87.5369 44.9167C80.7661 47.3349 77.9497 49.6108 59.3726 67.5619C46.912 79.6242 44.1525 81.8717 39.2593 83.9769C35.1343 85.7407 31.7488 86.5088 27.197 86.6511C22.9013 86.8218 20.3693 86.4804 16.5856 85.2286C11.3795 83.5217 4.89319 77.0638 1.45089 70.1508L0 67.249L0.170693 72.512C0.312937 77.7182 0.540527 79.3397 1.76382 84.2898C3.04402 89.496 5.60441 94.5314 9.3881 99.3961C14.6227 106.138 21.0237 110.52 27.6807 111.97C31.0945 112.71 39.8852 112.682 43.2991 111.942C49.8138 110.52 56.8976 107.191 62.3597 102.981C64.3512 101.444 69.2159 97.3194 69.7564 96.6935C70.4676 95.8969 82.4446 85.2286 85.4317 82.6967C87.5654 80.9329 91.0646 77.9458 93.1982 76.0681C95.3603 74.1905 97.9776 71.9431 99.0302 71.0896C102.7 68.074 104.009 66.8507 106.512 63.9205C109.585 60.3644 110.353 58.8851 110.723 55.8126C110.979 53.7643 110.95 53.2807 110.495 51.972C109.044 47.8469 105.943 45.1159 101.079 43.665C99.2009 43.1244 94.6207 43.096 91.9465 43.6365Z" fill="url(#paint2_linear_313_57)"/>
<path d="M113.169 64.8308C112.572 66.0541 111.348 67.9602 110.438 69.0128C108.788 71.0042 98.3758 80.9328 90.5809 88.045C86.9963 91.2882 83.3833 94.0761 82.2454 94.4744C82.1031 94.5313 81.8186 97.4331 81.591 100.961C81.3635 104.488 80.9652 108.699 80.7091 110.32C80.4531 111.97 80.3393 113.478 80.3962 113.677C80.6807 114.389 82.985 113.905 86.2566 112.397C86.9679 112.084 88.5325 111.373 89.7274 110.832C91.7757 109.894 96.2991 106.793 99.3146 104.261C100.965 102.867 104.834 98.6279 105.801 97.1202C106.228 96.4943 107.053 95.271 107.65 94.3606C108.248 93.4787 108.731 92.6821 108.731 92.5684C108.731 92.483 109.243 91.5442 109.869 90.52C112.401 86.3096 114.051 78.1733 114.336 68.3015C114.421 65.1437 114.449 62.5549 114.392 62.5833C114.336 62.5833 113.795 63.6075 113.169 64.8308Z" fill="url(#paint3_linear_313_57)"/>
<defs>
<linearGradient id="paint0_linear_313_57" x1="17.6155" y1="-0.000102997" x2="17.6155" y2="53.4517" gradientUnits="userSpaceOnUse">
<stop stop-color="white"/>
</linearGradient>
<linearGradient id="paint1_linear_313_57" x1="57.9857" y1="2.61517" x2="57.9857" y2="73.0527" gradientUnits="userSpaceOnUse">
<stop stop-color="white"/>
</linearGradient>
<linearGradient id="paint2_linear_313_57" x1="55.4422" y1="43.2451" x2="55.4422" y2="112.511" gradientUnits="userSpaceOnUse">
<stop stop-color="white"/>
</linearGradient>
<linearGradient id="paint3_linear_313_57" x1="97.402" y1="62.5831" x2="97.402" y2="114" gradientUnits="userSpaceOnUse">
<stop stop-color="white"/>
</linearGradient>
</defs>
</svg>
